<?xml version="1.0" encoding="utf-8"?>
<!-- Generator: Adobe Illustrator 24.0.0, SVG Export Plug-In . SVG Version: 6.00 Build 0)  -->
<svg version="1.1" id="Capa_1" xmlns="http://www.w3.org/2000/svg" xmlns:xlink="http://www.w3.org/1999/xlink" x="0px" y="0px"
	 viewBox="0 0 935.43 329.43" style="enable-background:new 0 0 935.43 329.43;" xml:space="preserve">
<style type="text/css">
	.st0{fill:url(#SVGID_1_);}
	.st1{fill:url(#SVGID_2_);}
	.st2{fill:url(#SVGID_3_);}
	.st3{fill:url(#SVGID_4_);}
	.st4{fill:url(#SVGID_5_);}
	.st5{fill:url(#SVGID_6_);}
	.st6{fill:#DCEFCE;}
	.st7{fill:url(#SVGID_7_);}
	.st8{fill:url(#SVGID_8_);}
	.st9{fill:url(#SVGID_9_);}
	.st10{fill:#15688A;}
</style>
<g>
	<linearGradient id="SVGID_1_" gradientUnits="userSpaceOnUse" x1="377.7809" y1="61.4637" x2="374.623" y2="236.2005">
		<stop  offset="0" style="stop-color:#FFFFFF"/>
		<stop  offset="6.849315e-03" style="stop-color:#C0E8B8"/>
		<stop  offset="1" style="stop-color:#15688A"/>
	</linearGradient>
	<path class="st0" d="M328.28,108.48h95.78c0.23,0.03,0.35,0.17,0.35,0.4v19.94c-0.64,0.64-21.39,15.9-62.25,45.78h61.89
		c0.23,0.03,0.35,0.17,0.35,0.4v19.74c0,0.27-0.12,0.4-0.35,0.4h-95.78c-0.27,0-0.4-0.13-0.4-0.4V174.2
		c0.57-0.54,21.05-15.59,61.44-45.17h-61.04c-0.27,0-0.4-0.13-0.4-0.4v-19.74C327.91,108.62,328.05,108.48,328.28,108.48z"/>
	<linearGradient id="SVGID_2_" gradientUnits="userSpaceOnUse" x1="483.5769" y1="63.3757" x2="480.419" y2="238.1125">
		<stop  offset="0" style="stop-color:#FFFFFF"/>
		<stop  offset="6.849315e-03" style="stop-color:#C0E8B8"/>
		<stop  offset="1" style="stop-color:#15688A"/>
	</linearGradient>
	<path class="st1" d="M429.86,108.48h78.31c9.7,0,17.59,4.2,23.67,12.59c2.05,3.76,3.07,7.39,3.07,10.88v2.72
		c0,6.41-3.36,12.04-10.07,16.87c6.71,4.46,10.07,10.09,10.07,16.87v3.88c0,7.39-4.06,13.78-12.19,19.19
		c-4.83,2.45-8.98,3.68-12.44,3.68h-80.42c-0.27,0-0.4-0.13-0.4-0.4v-85.86C429.49,108.62,429.62,108.48,429.86,108.48z
		 M457.2,129.03v13.4h47.69c2.25,0,4.11-1.56,5.59-4.68c0.27-1.24,0.4-1.95,0.4-2.12c0-3.15-1.88-5.29-5.64-6.4
		c-0.47-0.13-1.04-0.2-1.71-0.2H457.2z M457.2,161.21v13.4h45.73c3.79,0,6.24-1.29,7.35-3.88c0.4-1.31,0.6-2.28,0.6-2.92
		c0-3.09-1.81-5.29-5.44-6.6H457.2z"/>
	<linearGradient id="SVGID_3_" gradientUnits="userSpaceOnUse" x1="555.3919" y1="64.6735" x2="552.234" y2="239.4104">
		<stop  offset="0" style="stop-color:#FFFFFF"/>
		<stop  offset="6.849315e-03" style="stop-color:#C0E8B8"/>
		<stop  offset="1" style="stop-color:#15688A"/>
	</linearGradient>
	<path class="st2" d="M540.35,108.48h26.94c0.27,0.03,0.4,0.17,0.4,0.4v85.86c0,0.27-0.13,0.4-0.4,0.4h-26.94
		c-0.27,0-0.4-0.13-0.4-0.4v-85.86C539.98,108.62,540.11,108.48,540.35,108.48z"/>
	<linearGradient id="SVGID_4_" gradientUnits="userSpaceOnUse" x1="624.7715" y1="65.9274" x2="621.6136" y2="240.6642">
		<stop  offset="0" style="stop-color:#FFFFFF"/>
		<stop  offset="6.849315e-03" style="stop-color:#C0E8B8"/>
		<stop  offset="1" style="stop-color:#15688A"/>
	</linearGradient>
	<path class="st3" d="M573.13,108.48H674.5c0.27,0.03,0.4,0.17,0.4,0.4v19.74c0,0.27-0.14,0.4-0.4,0.4h-36.81v65.72
		c0,0.27-0.14,0.4-0.4,0.4h-26.94c-0.27,0-0.4-0.13-0.4-0.4v-65.72h-36.81c-0.27,0-0.4-0.13-0.4-0.4v-19.74
		C572.76,108.62,572.89,108.48,573.13,108.48z"/>
	<linearGradient id="SVGID_5_" gradientUnits="userSpaceOnUse" x1="737.8778" y1="67.9715" x2="734.7199" y2="242.7083">
		<stop  offset="0" style="stop-color:#FFFFFF"/>
		<stop  offset="6.849315e-03" style="stop-color:#C0E8B8"/>
		<stop  offset="1" style="stop-color:#15688A"/>
	</linearGradient>
	<path class="st4" d="M706.68,108.48h85.91c0.27,0.03,0.4,0.17,0.4,0.4v19.74c0,0.27-0.13,0.4-0.4,0.4h-76.8
		c-3.36,0-5.67,1.49-6.95,4.48c-0.27,1.31-0.4,2.08-0.4,2.32c0,3.19,2,5.39,5.99,6.6h51.57c9.74,0,17.63,4.2,23.67,12.59
		c2.08,3.76,3.12,7.39,3.12,10.88v4.83c0,11.18-6.4,19-19.19,23.47c-2.95,0.64-5.61,0.96-7.96,0.96h-85.31c-0.27,0-0.4-0.13-0.4-0.4
		v-19.74c0.03-0.27,0.17-0.4,0.4-0.4h76.75c3.16,0,5.36-1.29,6.6-3.88c0.54-1.07,0.81-2.05,0.81-2.92c0-3.15-1.88-5.29-5.64-6.39
		c-0.67-0.13-1.44-0.2-2.32-0.2h-49.86c-9.7,0-17.57-4.2-23.62-12.59c-2.08-3.76-3.12-7.39-3.12-10.88v-5.79
		c0-8.09,4.26-14.69,12.79-19.79C697.2,109.71,701.85,108.48,706.68,108.48z"/>
</g>
<linearGradient id="SVGID_6_" gradientUnits="userSpaceOnUse" x1="174.2632" y1="148.9891" x2="89" y2="148.9891">
	<stop  offset="0" style="stop-color:#C0E8B8"/>
	<stop  offset="1" style="stop-color:#15688A"/>
</linearGradient>
<path class="st5" d="M95.7,169.71c2.36-14.17,15.54-14.46,15.54-14.46h52.27c10.9,0,27.1-16.59,21.81-34.84
	c-3.83-13.2-14.83-18.16-18.62-19.5c-0.77-0.27-1.58-0.41-2.4-0.41h-28.98v0.01c-4.19,0.11-7.56,3.53-7.56,7.75
	c0,4.22,3.37,7.65,7.56,7.75v0.01h25.09c0,0,11.34-0.71,11.34,11.34s-10.19,11.52-10.19,11.52s-17.83,0-48.18,0
	c-24.47,0-31,20.56-32.62,28.53c-0.15,0.72-0.18,1.45-0.1,2.17c-3.83,0.4-6.81,3.64-6.81,7.57v12.69c0,4.21,3.41,7.62,7.62,7.62
	h12.69c4.21,0,7.62-3.41,7.62-7.62v-12.69C101.77,173.49,99.17,170.42,95.7,169.71z"/>
<circle class="st6" cx="103.96" cy="108.41" r="13.28"/>
<linearGradient id="SVGID_7_" gradientUnits="userSpaceOnUse" x1="202.9446" y1="168.7368" x2="202.9446" y2="82.4146">
	<stop  offset="0" style="stop-color:#C0E8B8"/>
	<stop  offset="1" style="stop-color:#15688A"/>
</linearGradient>
<path class="st7" d="M162.07,91.54h12.69c3.68,0,6.74-2.61,7.46-6.07c14.17,2.36,14.46,15.54,14.46,15.54v52.27
	c0,10.9,16.59,27.1,34.84,21.81c13.2-3.83,18.16-14.83,19.5-18.62c0.27-0.77,0.41-1.58,0.41-2.4v-28.98h-0.01
	c-0.11-4.19-3.53-7.56-7.75-7.56c-4.22,0-7.65,3.37-7.75,7.56h-0.01v25.09c0,0,0.71,11.34-11.34,11.34s-11.52-10.19-11.52-10.19
	s0-17.83,0-48.18c0-24.47-20.56-31-28.53-32.62c-0.72-0.15-1.45-0.18-2.17-0.1c-0.4-3.83-3.64-6.81-7.57-6.81h-12.69
	c-4.21,0-7.62,3.41-7.62,7.62v12.69C154.46,88.13,157.87,91.54,162.07,91.54z"/>
<circle class="st6" cx="243.53" cy="93.73" r="13.28"/>
<linearGradient id="SVGID_8_" gradientUnits="userSpaceOnUse" x1="176.1434" y1="193.432" x2="288.6484" y2="193.432">
	<stop  offset="0" style="stop-color:#C0E8B8"/>
	<stop  offset="1" style="stop-color:#15688A"/>
</linearGradient>
<path class="st8" d="M281.03,144.94h-12.69c-4.21,0-7.62,3.41-7.62,7.62v12.69c0,3.68,2.61,6.74,6.07,7.46
	c-2.36,14.17-15.54,14.46-15.54,14.46h-52.27c-10.9,0-27.1,16.59-21.81,34.84c3.83,13.2,14.83,18.16,18.62,19.5
	c0.77,0.27,1.58,0.41,2.4,0.41h28.98v-0.01c4.19-0.11,7.56-3.53,7.56-7.75c0-4.22-3.37-7.65-7.56-7.75v-0.01h-25.09
	c0,0-11.34,0.71-11.34-11.34s10.19-11.52,10.19-11.52s17.83,0,48.18,0c24.47,0,31-20.56,32.62-28.53c0.15-0.72,0.18-1.45,0.1-2.17
	c3.83-0.4,6.81-3.64,6.81-7.57v-12.69C288.65,148.35,285.24,144.94,281.03,144.94z"/>
<circle class="st6" cx="258.53" cy="234.01" r="13.28"/>
<linearGradient id="SVGID_9_" gradientUnits="userSpaceOnUse" x1="158.9218" y1="177.3595" x2="159.9745" y2="279.4647">
	<stop  offset="0" style="stop-color:#C0E8B8"/>
	<stop  offset="1" style="stop-color:#15688A"/>
</linearGradient>
<path class="st9" d="M200.42,250.88h-12.69c-3.68,0-6.74,2.6-7.46,6.07c-14.17-2.36-14.46-15.54-14.46-15.54v-52.27
	c0-10.9-16.59-27.1-34.84-21.81c-13.2,3.83-18.16,14.83-19.5,18.62c-0.27,0.77-0.41,1.58-0.41,2.4v28.98h0.01
	c0.11,4.19,3.53,7.56,7.75,7.56c4.22,0,7.65-3.37,7.75-7.56h0.01v-25.09c0,0-0.71-11.34,11.34-11.34s11.52,10.19,11.52,10.19
	s0,17.83,0,48.18c0,24.47,20.56,31,28.53,32.62c0.72,0.15,1.45,0.18,2.17,0.1c0.4,3.83,3.64,6.81,7.57,6.81h12.69
	c4.21,0,7.62-3.41,7.62-7.62V258.5C208.03,254.29,204.62,250.88,200.42,250.88z"/>
<circle class="st6" cx="118.96" cy="248.69" r="13.28"/>
<g>
	<path class="st10" d="M326.36,229.93v-6.01c0-1.58,0.42-2.75,1.27-3.49c0.85-0.74,1.95-1.12,3.32-1.12c1.4,0,2.54,0.35,3.4,1.04
		c0.86,0.7,1.29,1.59,1.29,2.7c0,0.44-0.08,0.74-0.25,0.9s-0.45,0.24-0.85,0.24c-0.72,0-1.08-0.24-1.09-0.72
		c-0.08-1.47-0.89-2.21-2.42-2.21c-1.65,0-2.48,0.89-2.48,2.66v6.01c0,1.78,0.84,2.67,2.52,2.67c0.5,0,0.91-0.07,1.24-0.22
		s0.57-0.35,0.71-0.63c0.14-0.27,0.24-0.52,0.3-0.72s0.1-0.46,0.12-0.76c0.04-0.48,0.4-0.72,1.07-0.72c0.4,0,0.69,0.08,0.86,0.24
		c0.17,0.16,0.26,0.46,0.26,0.9c0,1.14-0.43,2.07-1.3,2.79c-0.87,0.72-2,1.07-3.41,1.07c-1.36,0-2.47-0.37-3.31-1.12
		C326.78,232.67,326.36,231.51,326.36,229.93z"/>
	<path class="st10" d="M337.53,229.93v-6.01c0-1.58,0.42-2.75,1.26-3.49c0.84-0.74,1.96-1.12,3.37-1.12s2.53,0.37,3.38,1.12
		c0.85,0.74,1.27,1.91,1.27,3.49v6.01c0,1.58-0.42,2.75-1.27,3.49c-0.85,0.74-1.97,1.12-3.38,1.12s-2.53-0.37-3.37-1.12
		C337.95,232.67,337.53,231.51,337.53,229.93z M339.72,229.93c0,1.78,0.81,2.67,2.44,2.67c0.78,0,1.39-0.22,1.82-0.66
		c0.43-0.44,0.64-1.11,0.64-2v-6.01c0-0.9-0.21-1.56-0.64-2c-0.43-0.44-1.03-0.66-1.82-0.66c-1.63,0-2.44,0.89-2.44,2.66V229.93z"/>
	<path class="st10" d="M349.37,233.69v-13.65c0-0.48,0.36-0.72,1.09-0.72c0.39,0,0.7,0.09,0.93,0.26s0.48,0.5,0.72,0.98l4.59,8.94
		v-9.48c0-0.23,0.11-0.41,0.32-0.53c0.21-0.12,0.47-0.18,0.77-0.18s0.56,0.06,0.77,0.18c0.21,0.12,0.32,0.29,0.32,0.53v13.68
		c0,0.22-0.11,0.4-0.32,0.53c-0.21,0.13-0.47,0.2-0.77,0.2c-0.58,0-1.01-0.27-1.3-0.81l-4.94-9.4v9.48c0,0.22-0.11,0.4-0.32,0.53
		c-0.21,0.13-0.47,0.2-0.77,0.2c-0.29,0-0.54-0.07-0.76-0.2S349.37,233.91,349.37,233.69z"/>
	<path class="st10" d="M360.85,232.14c0-0.26,0.1-0.52,0.29-0.78s0.41-0.39,0.66-0.39c0.15,0,0.33,0.09,0.55,0.27
		c0.21,0.18,0.42,0.37,0.63,0.57c0.21,0.2,0.52,0.4,0.94,0.57c0.42,0.18,0.89,0.26,1.42,0.26c0.79,0,1.42-0.19,1.89-0.56
		c0.48-0.37,0.71-0.92,0.71-1.64c0-0.66-0.23-1.22-0.69-1.66c-0.46-0.44-1.02-0.8-1.67-1.06c-0.65-0.26-1.31-0.55-1.97-0.85
		c-0.66-0.3-1.22-0.76-1.68-1.37c-0.46-0.61-0.69-1.37-0.69-2.28c0-0.73,0.14-1.36,0.42-1.9c0.28-0.54,0.66-0.95,1.15-1.24
		c0.48-0.29,0.99-0.5,1.52-0.63s1.09-0.2,1.68-0.2c0.37,0,0.76,0.02,1.17,0.07c0.41,0.05,0.81,0.13,1.21,0.23s0.73,0.27,0.99,0.47
		c0.26,0.2,0.39,0.44,0.39,0.69s-0.08,0.52-0.25,0.78c-0.17,0.26-0.39,0.39-0.66,0.39c-0.14,0-0.32-0.07-0.56-0.2
		c-0.23-0.13-0.55-0.26-0.94-0.39c-0.39-0.13-0.84-0.2-1.35-0.2c-0.78,0-1.41,0.16-1.88,0.47s-0.7,0.79-0.7,1.42
		c0,0.42,0.12,0.77,0.37,1.07c0.25,0.3,0.57,0.54,0.96,0.74c0.39,0.19,0.83,0.38,1.31,0.57s0.96,0.4,1.44,0.65
		c0.48,0.25,0.91,0.54,1.3,0.86s0.71,0.77,0.96,1.34c0.25,0.57,0.37,1.23,0.37,1.97c0,1.42-0.43,2.51-1.29,3.25s-2,1.12-3.42,1.12
		c-1.27,0-2.34-0.26-3.23-0.79C361.3,233.25,360.85,232.7,360.85,232.14z"/>
	<path class="st10" d="M372.13,229.93v-9.92c0-0.23,0.11-0.41,0.32-0.53c0.21-0.12,0.47-0.18,0.77-0.18c0.3,0,0.56,0.06,0.77,0.18
		c0.21,0.12,0.32,0.29,0.32,0.53v9.92c0,0.9,0.22,1.56,0.66,2c0.44,0.44,1.06,0.66,1.86,0.66c1.69,0,2.54-0.89,2.54-2.67v-9.92
		c0-0.23,0.11-0.41,0.32-0.53c0.21-0.12,0.47-0.18,0.77-0.18c0.3,0,0.56,0.06,0.77,0.18c0.21,0.12,0.32,0.29,0.32,0.53v9.92
		c0,1.58-0.43,2.75-1.29,3.49s-2.01,1.12-3.44,1.12c-1.42,0-2.56-0.37-3.42-1.12S372.13,231.51,372.13,229.93z"/>
	<path class="st10" d="M384.24,233.69v-13.68c0-0.23,0.11-0.41,0.32-0.53c0.21-0.12,0.47-0.18,0.77-0.18c0.3,0,0.56,0.06,0.77,0.18
		c0.21,0.12,0.32,0.29,0.32,0.53v12.46h5.37c0.21,0,0.37,0.1,0.49,0.29c0.12,0.19,0.18,0.42,0.18,0.68s-0.06,0.49-0.18,0.68
		c-0.12,0.19-0.28,0.29-0.49,0.29h-6.59c-0.26,0-0.49-0.07-0.68-0.2C384.33,234.08,384.24,233.91,384.24,233.69z"/>
	<path class="st10" d="M390.99,220.31c0-0.26,0.06-0.5,0.19-0.7s0.3-0.3,0.54-0.3h8.57c0.23,0,0.41,0.1,0.54,0.29
		c0.12,0.19,0.19,0.42,0.19,0.69c0,0.29-0.07,0.54-0.2,0.74c-0.13,0.2-0.31,0.3-0.53,0.3h-3.18v12.35c0,0.22-0.11,0.4-0.33,0.53
		s-0.48,0.2-0.76,0.2c-0.3,0-0.56-0.07-0.77-0.2s-0.32-0.31-0.32-0.53v-12.35h-3.2c-0.22,0-0.4-0.1-0.53-0.3
		C391.06,220.83,390.99,220.59,390.99,220.31z"/>
	<path class="st10" d="M402.6,229.93v-9.92c0-0.23,0.11-0.41,0.32-0.53c0.21-0.12,0.47-0.18,0.77-0.18c0.3,0,0.56,0.06,0.77,0.18
		c0.21,0.12,0.32,0.29,0.32,0.53v9.92c0,0.9,0.22,1.56,0.66,2c0.44,0.44,1.06,0.66,1.86,0.66c1.69,0,2.54-0.89,2.54-2.67v-9.92
		c0-0.23,0.11-0.41,0.32-0.53c0.21-0.12,0.47-0.18,0.77-0.18c0.3,0,0.56,0.06,0.77,0.18c0.21,0.12,0.32,0.29,0.32,0.53v9.92
		c0,1.58-0.43,2.75-1.29,3.49s-2.01,1.12-3.44,1.12c-1.42,0-2.56-0.37-3.42-1.12S402.6,231.51,402.6,229.93z"/>
	<path class="st10" d="M414.71,233.69v-13.68c0-0.19,0.07-0.36,0.21-0.5s0.31-0.21,0.52-0.21h3.92c3.17,0,4.75,1.4,4.75,4.21
		c0,1.17-0.26,2.08-0.79,2.75s-1.23,1.11-2.13,1.33l2.89,5.45c0.06,0.1,0.08,0.2,0.08,0.31c0,0.28-0.14,0.53-0.42,0.77
		c-0.28,0.23-0.58,0.35-0.9,0.35c-0.36,0-0.65-0.21-0.87-0.64l-3.02-5.93h-2.09v5.78c0,0.22-0.11,0.4-0.32,0.53
		c-0.21,0.13-0.47,0.2-0.77,0.2c-0.29,0-0.54-0.07-0.75-0.2C414.81,234.08,414.71,233.91,414.71,233.69z M416.88,226.17h2.48
		c1.71,0,2.56-0.82,2.56-2.46c0-1.64-0.85-2.46-2.56-2.46h-2.48V226.17z"/>
	<path class="st10" d="M425.19,233.5c0-0.08,0.01-0.14,0.02-0.19l4.1-13.39c0.18-0.5,0.67-0.74,1.47-0.74
		c0.82,0,1.31,0.23,1.49,0.69l4.09,13.39c0.03,0.09,0.04,0.15,0.04,0.19c0,0.26-0.16,0.48-0.48,0.67c-0.32,0.19-0.66,0.28-1.02,0.28
		c-0.44,0-0.71-0.15-0.81-0.45l-0.86-2.96h-5.08l-0.84,2.95c-0.1,0.31-0.35,0.46-0.76,0.46c-0.33,0-0.64-0.09-0.93-0.27
		C425.33,233.96,425.19,233.75,425.19,233.5z M428.65,229.27h4.1l-2.07-7.09L428.65,229.27z"/>
	<path class="st10" d="M441.99,233.71v-13.7c0-0.19,0.09-0.36,0.28-0.5c0.19-0.14,0.42-0.21,0.69-0.21h3.66
		c1.4,0,2.53,0.37,3.38,1.12c0.85,0.74,1.27,1.91,1.27,3.49v5.89c0,1.58-0.42,2.75-1.27,3.49s-1.97,1.12-3.38,1.12h-3.66
		c-0.28,0-0.51-0.07-0.69-0.21C442.09,234.07,441.99,233.9,441.99,233.71z M444.18,232.47h2.44c1.64,0,2.46-0.89,2.46-2.66v-5.89
		c0-1.78-0.82-2.66-2.46-2.66h-2.44V232.47z"/>
	<path class="st10" d="M453.83,233.69v-13.65c0-0.22,0.1-0.4,0.29-0.53c0.19-0.13,0.42-0.2,0.68-0.2h7.35c0.23,0,0.41,0.1,0.54,0.29
		c0.12,0.19,0.19,0.41,0.19,0.66c0,0.28-0.07,0.51-0.2,0.7c-0.13,0.19-0.31,0.29-0.53,0.29h-6.14v4.73h3.18
		c0.22,0,0.4,0.09,0.53,0.26c0.13,0.17,0.2,0.38,0.2,0.63c0,0.22-0.06,0.42-0.19,0.59c-0.12,0.17-0.3,0.26-0.54,0.26h-3.18v4.75
		h6.14c0.22,0,0.4,0.1,0.53,0.29c0.13,0.19,0.2,0.43,0.2,0.7c0,0.25-0.06,0.47-0.19,0.66s-0.3,0.29-0.54,0.29h-7.35
		c-0.26,0-0.49-0.07-0.68-0.2C453.93,234.08,453.83,233.91,453.83,233.69z"/>
	<path class="st10" d="M468.77,233.69v-13.68c0-0.23,0.11-0.41,0.32-0.53c0.21-0.12,0.47-0.18,0.77-0.18s0.56,0.06,0.77,0.18
		c0.21,0.12,0.32,0.29,0.32,0.53v13.68c0,0.22-0.11,0.4-0.32,0.53c-0.21,0.13-0.47,0.2-0.77,0.2c-0.29,0-0.54-0.07-0.76-0.2
		C468.88,234.08,468.77,233.91,468.77,233.69z"/>
	<path class="st10" d="M473.68,233.69v-13.65c0-0.48,0.37-0.72,1.09-0.72c0.39,0,0.7,0.09,0.93,0.26s0.48,0.5,0.72,0.98l4.59,8.94
		v-9.48c0-0.23,0.11-0.41,0.32-0.53c0.21-0.12,0.47-0.18,0.78-0.18c0.3,0,0.56,0.06,0.77,0.18c0.21,0.12,0.32,0.29,0.32,0.53v13.68
		c0,0.22-0.11,0.4-0.32,0.53c-0.21,0.13-0.47,0.2-0.77,0.2c-0.58,0-1.01-0.27-1.3-0.81l-4.94-9.4v9.48c0,0.22-0.11,0.4-0.32,0.53
		c-0.21,0.13-0.47,0.2-0.77,0.2c-0.29,0-0.54-0.07-0.76-0.2C473.79,234.08,473.68,233.91,473.68,233.69z"/>
	<path class="st10" d="M485.93,233.69v-13.65c0-0.22,0.1-0.4,0.29-0.53c0.19-0.13,0.42-0.2,0.68-0.2h7.25
		c0.23,0,0.41,0.09,0.53,0.28c0.12,0.19,0.17,0.41,0.17,0.67c0,0.28-0.06,0.51-0.19,0.7c-0.12,0.19-0.3,0.29-0.52,0.29h-6.03v4.73
		h3.2c0.22,0,0.39,0.09,0.52,0.26s0.19,0.38,0.19,0.63c0,0.22-0.06,0.42-0.17,0.59c-0.12,0.17-0.29,0.26-0.53,0.26h-3.2v5.97
		c0,0.23-0.11,0.41-0.32,0.54c-0.21,0.12-0.47,0.19-0.77,0.19c-0.29,0-0.54-0.06-0.76-0.19
		C486.04,234.1,485.93,233.92,485.93,233.69z"/>
	<path class="st10" d="M495.95,229.93v-6.01c0-1.58,0.42-2.75,1.26-3.49c0.84-0.74,1.96-1.12,3.37-1.12c1.41,0,2.53,0.37,3.38,1.12
		c0.85,0.74,1.27,1.91,1.27,3.49v6.01c0,1.58-0.42,2.75-1.27,3.49s-1.97,1.12-3.38,1.12c-1.4,0-2.53-0.37-3.37-1.12
		S495.95,231.51,495.95,229.93z M498.14,229.93c0,1.78,0.81,2.67,2.44,2.67c0.79,0,1.39-0.22,1.82-0.66c0.43-0.44,0.64-1.11,0.64-2
		v-6.01c0-0.9-0.21-1.56-0.64-2s-1.03-0.66-1.82-0.66c-1.63,0-2.44,0.89-2.44,2.66V229.93z"/>
	<path class="st10" d="M507.79,233.69v-13.68c0-0.19,0.07-0.36,0.21-0.5c0.14-0.14,0.31-0.21,0.52-0.21h3.93
		c3.17,0,4.75,1.4,4.75,4.21c0,1.17-0.26,2.08-0.79,2.75s-1.23,1.11-2.13,1.33l2.89,5.45c0.05,0.1,0.08,0.2,0.08,0.31
		c0,0.28-0.14,0.53-0.42,0.77c-0.28,0.23-0.58,0.35-0.9,0.35c-0.36,0-0.65-0.21-0.87-0.64l-3.02-5.93h-2.09v5.78
		c0,0.22-0.11,0.4-0.32,0.53c-0.21,0.13-0.47,0.2-0.77,0.2c-0.29,0-0.54-0.07-0.75-0.2C507.89,234.08,507.79,233.91,507.79,233.69z
		 M509.96,226.17h2.48c1.71,0,2.56-0.82,2.56-2.46c0-1.64-0.85-2.46-2.56-2.46h-2.48V226.17z"/>
	<path class="st10" d="M519.33,233.69V220.4c0-0.37,0.1-0.65,0.31-0.83c0.21-0.18,0.47-0.27,0.79-0.27c0.4,0,0.73,0.09,0.98,0.26
		s0.51,0.5,0.75,0.98l2.89,5.47l2.93-5.47c0.25-0.48,0.5-0.81,0.74-0.98s0.57-0.26,0.97-0.26c0.32,0,0.58,0.09,0.79,0.27
		c0.21,0.18,0.31,0.45,0.31,0.83v13.28c0,0.22-0.11,0.4-0.32,0.53s-0.47,0.2-0.77,0.2c-0.29,0-0.54-0.07-0.76-0.2
		c-0.22-0.13-0.33-0.31-0.33-0.53v-9.92l-2.77,5.12c-0.21,0.33-0.47,0.5-0.81,0.5c-0.33,0-0.58-0.17-0.74-0.5l-2.77-5.25v10.04
		c0,0.22-0.11,0.4-0.32,0.53c-0.21,0.13-0.47,0.2-0.77,0.2c-0.29,0-0.54-0.07-0.76-0.2C519.45,234.08,519.33,233.91,519.33,233.69z"
		/>
	<path class="st10" d="M532.46,233.5c0-0.08,0.01-0.14,0.02-0.19l4.1-13.39c0.18-0.5,0.67-0.74,1.47-0.74
		c0.82,0,1.32,0.23,1.49,0.69l4.09,13.39c0.03,0.09,0.04,0.15,0.04,0.19c0,0.26-0.16,0.48-0.48,0.67c-0.32,0.19-0.66,0.28-1.02,0.28
		c-0.43,0-0.71-0.15-0.81-0.45L540.5,231h-5.08l-0.84,2.95c-0.1,0.31-0.35,0.46-0.76,0.46c-0.33,0-0.64-0.09-0.93-0.27
		C532.6,233.96,532.46,233.75,532.46,233.5z M535.92,229.27h4.1l-2.07-7.09L535.92,229.27z M536.5,216.54c0-0.25,0.1-0.43,0.31-0.54
		l2.56-1.3c0.11-0.03,0.19-0.04,0.23-0.04c0.19,0,0.36,0.09,0.5,0.27c0.14,0.18,0.21,0.37,0.21,0.58c0,0.28-0.11,0.46-0.33,0.56
		l-2.5,1.26c-0.08,0.04-0.17,0.06-0.25,0.06c-0.19,0-0.36-0.09-0.51-0.27C536.57,216.94,536.5,216.75,536.5,216.54z"/>
	<path class="st10" d="M542.86,220.31c0-0.26,0.06-0.5,0.19-0.7c0.12-0.2,0.3-0.3,0.54-0.3h8.57c0.23,0,0.41,0.1,0.54,0.29
		c0.12,0.19,0.19,0.42,0.19,0.69c0,0.29-0.07,0.54-0.2,0.74c-0.13,0.2-0.31,0.3-0.53,0.3h-3.18v12.35c0,0.22-0.11,0.4-0.33,0.53
		c-0.22,0.13-0.47,0.2-0.76,0.2c-0.3,0-0.56-0.07-0.77-0.2s-0.32-0.31-0.32-0.53v-12.35h-3.2c-0.22,0-0.4-0.1-0.53-0.3
		C542.93,220.83,542.86,220.59,542.86,220.31z"/>
	<path class="st10" d="M554.53,233.69v-13.68c0-0.23,0.11-0.41,0.32-0.53c0.21-0.12,0.47-0.18,0.77-0.18s0.56,0.06,0.77,0.18
		c0.21,0.12,0.32,0.29,0.32,0.53v13.68c0,0.22-0.11,0.4-0.32,0.53c-0.21,0.13-0.47,0.2-0.77,0.2c-0.29,0-0.54-0.07-0.76-0.2
		C554.64,234.08,554.53,233.91,554.53,233.69z"/>
	<path class="st10" d="M559.31,229.93v-6.01c0-1.58,0.42-2.75,1.27-3.49c0.85-0.74,1.95-1.12,3.32-1.12c1.4,0,2.54,0.35,3.4,1.04
		c0.86,0.7,1.29,1.59,1.29,2.7c0,0.44-0.08,0.74-0.25,0.9s-0.45,0.24-0.85,0.24c-0.72,0-1.08-0.24-1.09-0.72
		c-0.08-1.47-0.89-2.21-2.42-2.21c-1.65,0-2.48,0.89-2.48,2.66v6.01c0,1.78,0.84,2.67,2.52,2.67c0.5,0,0.91-0.07,1.24-0.22
		c0.33-0.14,0.57-0.35,0.71-0.63c0.14-0.27,0.24-0.52,0.3-0.72c0.05-0.21,0.1-0.46,0.12-0.76c0.04-0.48,0.4-0.72,1.07-0.72
		c0.4,0,0.68,0.08,0.86,0.24c0.17,0.16,0.26,0.46,0.26,0.9c0,1.14-0.43,2.07-1.3,2.79c-0.87,0.72-2,1.07-3.41,1.07
		c-1.36,0-2.47-0.37-3.31-1.12S559.31,231.51,559.31,229.93z"/>
	<path class="st10" d="M569.56,233.5c0-0.08,0.01-0.14,0.02-0.19l4.1-13.39c0.18-0.5,0.67-0.74,1.47-0.74
		c0.82,0,1.32,0.23,1.49,0.69l4.09,13.39c0.03,0.09,0.04,0.15,0.04,0.19c0,0.26-0.16,0.48-0.48,0.67c-0.32,0.19-0.66,0.28-1.02,0.28
		c-0.43,0-0.71-0.15-0.81-0.45L577.6,231h-5.08l-0.84,2.95c-0.1,0.31-0.35,0.46-0.76,0.46c-0.33,0-0.64-0.09-0.93-0.27
		C569.7,233.96,569.56,233.75,569.56,233.5z M573.02,229.27h4.1l-2.07-7.09L573.02,229.27z"/>
	<path class="st10" d="M585.27,220.22c0-0.25,0.15-0.46,0.45-0.64c0.3-0.18,0.61-0.27,0.93-0.27c0.3,0,0.54,0.17,0.72,0.5l3.41,6.55
		l3.39-6.55c0.17-0.33,0.41-0.5,0.72-0.5c0.32,0,0.62,0.09,0.92,0.27c0.3,0.18,0.44,0.39,0.44,0.64c0,0.12-0.02,0.23-0.06,0.31
		l-4.28,7.71c-0.03,0.08-0.04,0.16-0.04,0.23v5.23c0,0.22-0.11,0.4-0.33,0.53c-0.22,0.13-0.48,0.2-0.76,0.2
		c-0.3,0-0.56-0.07-0.77-0.2c-0.21-0.13-0.32-0.31-0.32-0.53v-5.23c0-0.03-0.02-0.1-0.06-0.23l-4.28-7.71
		C585.3,220.42,585.27,220.31,585.27,220.22z"/>
	<path class="st10" d="M600.95,220.31c0-0.26,0.06-0.5,0.19-0.7c0.12-0.2,0.3-0.3,0.54-0.3h8.57c0.23,0,0.41,0.1,0.54,0.29
		c0.12,0.19,0.19,0.42,0.19,0.69c0,0.29-0.07,0.54-0.2,0.74c-0.13,0.2-0.31,0.3-0.53,0.3h-3.18v12.35c0,0.22-0.11,0.4-0.33,0.53
		c-0.22,0.13-0.47,0.2-0.76,0.2c-0.3,0-0.56-0.07-0.77-0.2s-0.32-0.31-0.32-0.53v-12.35h-3.2c-0.22,0-0.4-0.1-0.53-0.3
		C601.02,220.83,600.95,220.59,600.95,220.31z"/>
	<path class="st10" d="M612.62,233.69v-13.65c0-0.22,0.1-0.4,0.29-0.53c0.19-0.13,0.42-0.2,0.68-0.2h7.35c0.23,0,0.41,0.1,0.54,0.29
		c0.12,0.19,0.19,0.41,0.19,0.66c0,0.28-0.07,0.51-0.2,0.7c-0.13,0.19-0.31,0.29-0.53,0.29h-6.14v4.73h3.18
		c0.22,0,0.4,0.09,0.53,0.26s0.2,0.38,0.2,0.63c0,0.22-0.06,0.42-0.19,0.59c-0.12,0.17-0.3,0.26-0.54,0.26h-3.18v4.75h6.14
		c0.22,0,0.4,0.1,0.53,0.29c0.13,0.19,0.2,0.43,0.2,0.7c0,0.25-0.06,0.47-0.19,0.66s-0.3,0.29-0.54,0.29h-7.35
		c-0.26,0-0.49-0.07-0.68-0.2C612.72,234.08,612.62,233.91,612.62,233.69z"/>
	<path class="st10" d="M623.43,233.69v-13.68c0-0.23,0.11-0.41,0.32-0.53c0.21-0.12,0.47-0.18,0.77-0.18s0.56,0.06,0.77,0.18
		c0.21,0.12,0.32,0.29,0.32,0.53v12.46h5.37c0.21,0,0.37,0.1,0.49,0.29c0.12,0.19,0.18,0.42,0.18,0.68s-0.06,0.49-0.18,0.68
		s-0.28,0.29-0.49,0.29h-6.59c-0.26,0-0.49-0.07-0.68-0.2C623.52,234.08,623.43,233.91,623.43,233.69z"/>
	<path class="st10" d="M633.28,233.69v-13.65c0-0.22,0.1-0.4,0.29-0.53c0.19-0.13,0.42-0.2,0.68-0.2h7.35c0.23,0,0.41,0.1,0.54,0.29
		c0.12,0.19,0.19,0.41,0.19,0.66c0,0.28-0.07,0.51-0.2,0.7c-0.13,0.19-0.31,0.29-0.53,0.29h-6.14v4.73h3.18
		c0.22,0,0.4,0.09,0.53,0.26s0.2,0.38,0.2,0.63c0,0.22-0.06,0.42-0.19,0.59c-0.12,0.17-0.3,0.26-0.54,0.26h-3.18v4.75h6.14
		c0.22,0,0.4,0.1,0.53,0.29c0.13,0.19,0.2,0.43,0.2,0.7c0,0.25-0.06,0.47-0.19,0.66s-0.3,0.29-0.54,0.29h-7.35
		c-0.26,0-0.49-0.07-0.68-0.2C633.38,234.08,633.28,233.91,633.28,233.69z"/>
	<path class="st10" d="M643.75,229.93v-6.01c0-1.58,0.42-2.75,1.27-3.49c0.85-0.74,1.95-1.12,3.32-1.12c1.4,0,2.54,0.35,3.4,1.04
		c0.86,0.7,1.29,1.59,1.29,2.7c0,0.44-0.08,0.74-0.25,0.9s-0.45,0.24-0.85,0.24c-0.72,0-1.08-0.24-1.09-0.72
		c-0.08-1.47-0.89-2.21-2.42-2.21c-1.65,0-2.48,0.89-2.48,2.66v6.01c0,1.78,0.84,2.67,2.52,2.67c0.5,0,0.91-0.07,1.24-0.22
		c0.33-0.14,0.57-0.35,0.71-0.63c0.14-0.27,0.24-0.52,0.3-0.72c0.05-0.21,0.1-0.46,0.12-0.76c0.04-0.48,0.4-0.72,1.07-0.72
		c0.4,0,0.68,0.08,0.86,0.24c0.17,0.16,0.26,0.46,0.26,0.9c0,1.14-0.43,2.07-1.3,2.79c-0.87,0.72-2,1.07-3.41,1.07
		c-1.36,0-2.47-0.37-3.31-1.12S643.75,231.51,643.75,229.93z"/>
	<path class="st10" d="M654.93,229.93v-6.01c0-1.58,0.42-2.75,1.26-3.49c0.84-0.74,1.96-1.12,3.37-1.12c1.41,0,2.53,0.37,3.38,1.12
		c0.85,0.74,1.27,1.91,1.27,3.49v6.01c0,1.58-0.42,2.75-1.27,3.49s-1.97,1.12-3.38,1.12c-1.4,0-2.53-0.37-3.37-1.12
		S654.93,231.51,654.93,229.93z M657.12,229.93c0,1.78,0.81,2.67,2.44,2.67c0.79,0,1.39-0.22,1.82-0.66c0.43-0.44,0.64-1.11,0.64-2
		v-6.01c0-0.9-0.21-1.56-0.64-2s-1.03-0.66-1.82-0.66c-1.63,0-2.44,0.89-2.44,2.66V229.93z"/>
	<path class="st10" d="M666.76,233.69V220.4c0-0.37,0.1-0.65,0.31-0.83c0.21-0.18,0.47-0.27,0.79-0.27c0.4,0,0.73,0.09,0.98,0.26
		s0.51,0.5,0.75,0.98l2.89,5.47l2.93-5.47c0.25-0.48,0.5-0.81,0.74-0.98s0.57-0.26,0.97-0.26c0.32,0,0.58,0.09,0.79,0.27
		c0.21,0.18,0.31,0.45,0.31,0.83v13.28c0,0.22-0.11,0.4-0.32,0.53s-0.47,0.2-0.77,0.2c-0.29,0-0.54-0.07-0.76-0.2
		c-0.22-0.13-0.33-0.31-0.33-0.53v-9.92l-2.77,5.12c-0.21,0.33-0.47,0.5-0.81,0.5c-0.33,0-0.58-0.17-0.74-0.5l-2.77-5.25v10.04
		c0,0.22-0.11,0.4-0.32,0.53c-0.21,0.13-0.47,0.2-0.77,0.2c-0.29,0-0.54-0.07-0.76-0.2C666.88,234.08,666.76,233.91,666.76,233.69z"
		/>
	<path class="st10" d="M680.89,229.93v-9.92c0-0.23,0.11-0.41,0.32-0.53c0.21-0.12,0.47-0.18,0.77-0.18c0.3,0,0.56,0.06,0.77,0.18
		c0.21,0.12,0.32,0.29,0.32,0.53v9.92c0,0.9,0.22,1.56,0.66,2c0.44,0.44,1.06,0.66,1.86,0.66c1.69,0,2.54-0.89,2.54-2.67v-9.92
		c0-0.23,0.11-0.41,0.32-0.53c0.21-0.12,0.47-0.18,0.78-0.18c0.3,0,0.56,0.06,0.77,0.18c0.21,0.12,0.32,0.29,0.32,0.53v9.92
		c0,1.58-0.43,2.75-1.29,3.49c-0.86,0.74-2.01,1.12-3.44,1.12c-1.42,0-2.56-0.37-3.42-1.12
		C681.32,232.67,680.89,231.51,680.89,229.93z"/>
	<path class="st10" d="M693,233.69v-13.65c0-0.48,0.37-0.72,1.09-0.72c0.39,0,0.7,0.09,0.93,0.26s0.48,0.5,0.72,0.98l4.59,8.94
		v-9.48c0-0.23,0.11-0.41,0.32-0.53c0.21-0.12,0.47-0.18,0.78-0.18c0.3,0,0.56,0.06,0.77,0.18c0.21,0.12,0.32,0.29,0.32,0.53v13.68
		c0,0.22-0.11,0.4-0.32,0.53c-0.21,0.13-0.47,0.2-0.77,0.2c-0.58,0-1.01-0.27-1.3-0.81l-4.94-9.4v9.48c0,0.22-0.11,0.4-0.32,0.53
		c-0.21,0.13-0.47,0.2-0.77,0.2c-0.29,0-0.54-0.07-0.76-0.2C693.11,234.08,693,233.91,693,233.69z"/>
	<path class="st10" d="M705.25,233.69v-13.68c0-0.23,0.11-0.41,0.32-0.53c0.21-0.12,0.47-0.18,0.77-0.18s0.56,0.06,0.77,0.18
		c0.21,0.12,0.32,0.29,0.32,0.53v13.68c0,0.22-0.11,0.4-0.32,0.53c-0.21,0.13-0.47,0.2-0.77,0.2c-0.29,0-0.54-0.07-0.76-0.2
		C705.36,234.08,705.25,233.91,705.25,233.69z"/>
	<path class="st10" d="M710.02,229.93v-6.01c0-1.58,0.42-2.75,1.27-3.49c0.85-0.74,1.95-1.12,3.32-1.12c1.4,0,2.54,0.35,3.4,1.04
		c0.86,0.7,1.29,1.59,1.29,2.7c0,0.44-0.08,0.74-0.25,0.9s-0.45,0.24-0.85,0.24c-0.72,0-1.08-0.24-1.09-0.72
		c-0.08-1.47-0.89-2.21-2.42-2.21c-1.65,0-2.48,0.89-2.48,2.66v6.01c0,1.78,0.84,2.67,2.52,2.67c0.5,0,0.91-0.07,1.24-0.22
		c0.33-0.14,0.57-0.35,0.71-0.63c0.14-0.27,0.24-0.52,0.3-0.72c0.05-0.21,0.1-0.46,0.12-0.76c0.04-0.48,0.4-0.72,1.07-0.72
		c0.4,0,0.68,0.08,0.86,0.24c0.17,0.16,0.26,0.46,0.26,0.9c0,1.14-0.43,2.07-1.3,2.79c-0.87,0.72-2,1.07-3.41,1.07
		c-1.36,0-2.47-0.37-3.31-1.12S710.02,231.51,710.02,229.93z"/>
	<path class="st10" d="M720.27,233.5c0-0.08,0.01-0.14,0.02-0.19l4.1-13.39c0.18-0.5,0.67-0.74,1.47-0.74
		c0.82,0,1.32,0.23,1.49,0.69l4.09,13.39c0.03,0.09,0.04,0.15,0.04,0.19c0,0.26-0.16,0.48-0.48,0.67c-0.32,0.19-0.66,0.28-1.02,0.28
		c-0.43,0-0.71-0.15-0.81-0.45l-0.86-2.96h-5.08l-0.84,2.95c-0.1,0.31-0.35,0.46-0.76,0.46c-0.33,0-0.64-0.09-0.93-0.27
		C720.42,233.96,720.27,233.75,720.27,233.5z M723.74,229.27h4.1l-2.07-7.09L723.74,229.27z"/>
	<path class="st10" d="M732.81,229.93v-6.01c0-1.58,0.42-2.75,1.27-3.49c0.85-0.74,1.95-1.12,3.32-1.12c1.4,0,2.54,0.35,3.4,1.04
		c0.86,0.7,1.29,1.59,1.29,2.7c0,0.44-0.08,0.74-0.25,0.9s-0.45,0.24-0.85,0.24c-0.72,0-1.08-0.24-1.09-0.72
		c-0.08-1.47-0.89-2.21-2.42-2.21c-1.65,0-2.48,0.89-2.48,2.66v6.01c0,1.78,0.84,2.67,2.52,2.67c0.5,0,0.91-0.07,1.24-0.22
		c0.33-0.14,0.57-0.35,0.71-0.63c0.14-0.27,0.24-0.52,0.3-0.72c0.05-0.21,0.1-0.46,0.12-0.76c0.04-0.48,0.4-0.72,1.07-0.72
		c0.4,0,0.68,0.08,0.86,0.24c0.17,0.16,0.26,0.46,0.26,0.9c0,1.14-0.43,2.07-1.3,2.79c-0.87,0.72-2,1.07-3.41,1.07
		c-1.36,0-2.47-0.37-3.31-1.12S732.81,231.51,732.81,229.93z"/>
	<path class="st10" d="M744.13,233.69v-13.68c0-0.23,0.11-0.41,0.32-0.53c0.21-0.12,0.47-0.18,0.77-0.18s0.56,0.06,0.77,0.18
		c0.21,0.12,0.32,0.29,0.32,0.53v13.68c0,0.22-0.11,0.4-0.32,0.53c-0.21,0.13-0.47,0.2-0.77,0.2c-0.29,0-0.54-0.07-0.76-0.2
		C744.24,234.08,744.13,233.91,744.13,233.69z"/>
	<path class="st10" d="M748.9,229.93v-6.01c0-1.58,0.42-2.75,1.26-3.49c0.84-0.74,1.96-1.12,3.37-1.12c1.41,0,2.53,0.37,3.38,1.12
		c0.85,0.74,1.27,1.91,1.27,3.49v6.01c0,1.58-0.42,2.75-1.27,3.49s-1.97,1.12-3.38,1.12c-1.4,0-2.53-0.37-3.37-1.12
		S748.9,231.51,748.9,229.93z M751.09,229.93c0,1.78,0.81,2.67,2.44,2.67c0.79,0,1.39-0.22,1.82-0.66c0.43-0.44,0.64-1.11,0.64-2
		v-6.01c0-0.9-0.21-1.56-0.64-2s-1.03-0.66-1.82-0.66c-1.63,0-2.44,0.89-2.44,2.66V229.93z"/>
	<path class="st10" d="M760.73,233.69v-13.65c0-0.48,0.37-0.72,1.09-0.72c0.39,0,0.7,0.09,0.93,0.26s0.48,0.5,0.72,0.98l4.59,8.94
		v-9.48c0-0.23,0.11-0.41,0.32-0.53c0.21-0.12,0.47-0.18,0.78-0.18c0.3,0,0.56,0.06,0.77,0.18c0.21,0.12,0.32,0.29,0.32,0.53v13.68
		c0,0.22-0.11,0.4-0.32,0.53c-0.21,0.13-0.47,0.2-0.77,0.2c-0.58,0-1.01-0.27-1.3-0.81l-4.94-9.4v9.48c0,0.22-0.11,0.4-0.32,0.53
		c-0.21,0.13-0.47,0.2-0.77,0.2c-0.29,0-0.54-0.07-0.76-0.2C760.84,234.08,760.73,233.91,760.73,233.69z"/>
	<path class="st10" d="M772.98,233.69v-13.65c0-0.22,0.1-0.4,0.29-0.53c0.19-0.13,0.42-0.2,0.68-0.2h7.35c0.23,0,0.41,0.1,0.54,0.29
		c0.12,0.19,0.19,0.41,0.19,0.66c0,0.28-0.07,0.51-0.2,0.7c-0.13,0.19-0.31,0.29-0.53,0.29h-6.14v4.73h3.18
		c0.22,0,0.4,0.09,0.53,0.26s0.2,0.38,0.2,0.63c0,0.22-0.06,0.42-0.19,0.59c-0.12,0.17-0.3,0.26-0.54,0.26h-3.18v4.75h6.14
		c0.22,0,0.4,0.1,0.53,0.29c0.13,0.19,0.2,0.43,0.2,0.7c0,0.25-0.06,0.47-0.19,0.66s-0.3,0.29-0.54,0.29h-7.35
		c-0.26,0-0.49-0.07-0.68-0.2C773.08,234.08,772.98,233.91,772.98,233.69z"/>
	<path class="st10" d="M783.02,232.14c0-0.26,0.1-0.52,0.29-0.78c0.19-0.26,0.41-0.39,0.66-0.39c0.15,0,0.33,0.09,0.55,0.27
		c0.21,0.18,0.42,0.37,0.63,0.57c0.21,0.2,0.52,0.4,0.94,0.57c0.42,0.18,0.89,0.26,1.42,0.26c0.79,0,1.42-0.19,1.89-0.56
		c0.48-0.37,0.71-0.92,0.71-1.64c0-0.66-0.23-1.22-0.69-1.66c-0.46-0.44-1.02-0.8-1.67-1.06s-1.31-0.55-1.97-0.85
		s-1.22-0.76-1.68-1.37c-0.46-0.61-0.69-1.37-0.69-2.28c0-0.73,0.14-1.36,0.42-1.9c0.28-0.54,0.66-0.95,1.15-1.24
		c0.48-0.29,0.99-0.5,1.52-0.63c0.53-0.13,1.09-0.2,1.68-0.2c0.37,0,0.76,0.02,1.17,0.07s0.81,0.13,1.21,0.23s0.73,0.27,0.99,0.47
		c0.26,0.2,0.39,0.44,0.39,0.69s-0.08,0.52-0.25,0.78c-0.17,0.26-0.39,0.39-0.66,0.39c-0.14,0-0.32-0.07-0.56-0.2
		c-0.23-0.13-0.55-0.26-0.94-0.39c-0.39-0.13-0.84-0.2-1.35-0.2c-0.79,0-1.41,0.16-1.88,0.47c-0.47,0.31-0.7,0.79-0.7,1.42
		c0,0.42,0.12,0.77,0.37,1.07c0.25,0.3,0.57,0.54,0.96,0.74c0.39,0.19,0.83,0.38,1.31,0.57s0.96,0.4,1.44,0.65
		c0.48,0.25,0.91,0.54,1.3,0.86s0.71,0.77,0.96,1.34c0.25,0.57,0.37,1.23,0.37,1.97c0,1.42-0.43,2.51-1.29,3.25s-2,1.12-3.42,1.12
		c-1.27,0-2.34-0.26-3.23-0.79C783.47,233.25,783.02,232.7,783.02,232.14z"/>
</g>
</svg>
